<svg version="1.1" xmlns="http://www.w3.org/2000/svg" viewBox="-739.7781019945606 -148.61840104151338 1479.5562039891215 289.1515532669141" fill="none" stroke="black" stroke-width="0.6%" vector-effect="non-scaling-stroke">
    <path d="M -738.7781 -103.99302 L -738.7781 -121.94129 L 0.02396 0.04369 L 738.7781 -25.63342 L -0.02396 -147.6184 L -738.7781 -121.94129" />
    <path d="M 0.02396 17.99196 L 0.02396 0.04369" />
    <path d="M 0.02188 17.99162 L 0.02396 17.99196 L 224.88589 10.17637 L 224.88589 109.88901 L 241.2461 109.32037" />
    <path d="M 0.02188 17.99162 L 0.02188 52.89104 L 205.7969 45.73886" />
    <path d="M -7.48436 51.65167 L 0.02188 52.89104" />
    <path d="M -7.48436 16.75225 L -7.48436 51.65167" />
    <path d="M -731.26977 -102.7533 L -7.48436 16.75225" />
    <path d="M -731.26977 -102.7533 L -731.26977 -67.85388 L -556.65842 -73.9229" />
    <path d="M -738.77602 -69.09325 L -731.26977 -67.85388" />
    <path d="M -738.77602 -103.99267 L -738.77602 -69.09325" />
    <path d="M -738.7781 -103.99302 L -738.77602 -103.99267" />
    <path d="M 738.7781 27.21428 L 738.7781 -25.63342" />
    <path d="M 722.4179 27.78292 L 738.7781 27.21428" />
    <path d="M 722.4179 -7.11651 L 722.4179 27.78292" />
    <path d="M 513.91618 0.13045 L 722.4179 -7.11651" />
    <path d="M 513.91618 0.13045 L 513.91618 99.8431" />
    <path d="M 497.55597 100.41173 L 513.91618 99.8431" />
    <path d="M 497.55597 0.69909 L 497.55597 100.41173" />
    <path d="M 241.2461 9.60773 L 497.55597 0.69909" />
    <path d="M 241.2461 9.60773 L 241.2461 109.32037" />
    <path d="M 0.02188 17.99162 L 224.88381 10.17602" />
    <path d="M -260.33092 -20.90949 A 30 27.18865 279.37562 0 0 -237.95109 7.74203" />
    <path d="M -533.001 -70.01678 L -533.001 -11.43222 L -525.49475 -10.19285" />
    <path d="M -533.001 -11.43222 A 30 27.18865 279.37562 0 0 -510.62117 17.2193" />
    <path d="M -260.33092 -24.99572 L -260.33092 -20.90949 L -252.82467 -19.67012" />
    <path d="M -198.97837 -14.86568 A 30 27.18865 99.37562 0 1 -230.44485 8.9814 L -237.95109 7.74203" />
    <path d="M -230.44485 8.9814 A 30 27.18865 99.37562 0 1 -252.82467 -19.67012" />
    <path d="M -233.73777 -20.60487 L -233.73777 -20.33353 L -218.5398 -17.82417 L -218.50576 -18.08989" />
    <path d="M -506.40785 -65.62593 L -506.40785 -10.85625 L -491.20988 -8.34689 L -474.84968 -8.91553" />
    <path d="M -525.49475 -68.77741 L -525.49475 -10.19285" />
    <path d="M -470.96074 -12.0883 A 30 27.18865 99.37562 0 1 -503.11493 18.45867 L -510.62117 17.2193" />
    <path d="M -503.11493 18.45867 A 30 27.18865 99.37562 0 1 -525.49475 -10.19285" />
    <path d="M -470.96074 -12.0883 L -470.96074 -39.26976" />
    <path d="M -252.82467 -23.75635 L -252.82467 -19.67012" />
    <path d="M 197.02777 64.2273 L 198.29066 74.50148" />
    <path d="M 197.02777 64.2273 A 20 8.3163 88.00935 0 0 189.0957 49.13767" />
    <path d="M 174.99485 46.80945 L 189.0957 49.13767" />
    <path d="M -478.83541 -61.0734 A 20 8.3163 88.00935 0 0 -486.05806 -48.55827 L -469.69785 -49.12691 L -474.84968 -8.91553" />
    <path d="M -491.20988 -8.34689 L -486.05806 -48.55827" />
    <path d="M 470.96074 99.83543 A 30 27.18865 279.37562 0 0 493.34056 128.48695 L 500.8468 129.72632 A 30 27.18865 99.37562 0 1 478.46698 101.0748 L 470.96074 99.83543 L 470.96074 36.52248" />
    <path d="M 198.29066 109.31271 A 30 27.18865 279.37562 0 0 220.67048 137.96423 L 228.17672 139.2036 A 30 27.18865 99.37562 0 1 205.7969 110.55208 L 198.29066 109.31271 L 198.29066 45.99975" />
    <path d="M 533.001 99.17934 A 30 27.18865 99.37562 0 1 500.8468 129.72632" />
    <path d="M 478.46698 101.0748 L 478.46698 36.26158" />
    <path d="M 260.33092 43.8434 L 478.46698 36.26158" />
    <path d="M 260.33092 43.8434 L 260.33092 108.65662 A 30 27.18865 99.37562 0 1 228.17672 139.2036" />
    <path d="M 205.7969 110.55208 L 205.7969 45.73886" />
    <path d="M 224.88381 109.88867 L 224.88381 10.17602" />
    <path d="M 224.88381 109.88867 L 241.24401 109.32003" />
    <path d="M 497.55389 100.41139 L 497.55389 0.69874" />
    <path d="M 497.55389 100.41139 L 513.91409 99.84275" />
    <path d="M 722.41581 27.78257 L 722.41581 -7.11685" />
    <path d="M 533.001 34.36612 L 722.41581 27.78257 L 722.4179 27.78292" />
    <path d="M 533.001 34.36612 L 533.001 99.17934" />
    <path d="M 224.88381 109.88867 L 224.88589 109.88901" />
    <path d="M 497.55389 100.41139 L 497.55597 100.41173" />
    <path d="M -218.5398 -17.82417 L -217.18222 -17.87135" />
    <path d="M 469.69785 54.75002 L 470.96074 65.0242" />
    <path d="M 469.69785 54.75002 A 20 8.3163 88.00935 0 0 461.76578 39.66039" />
    <path d="M 447.66493 37.33218 L 461.76578 39.66039" />
    <path d="M -466.38763 -59.01812 A 20 8.3163 88.00935 0 0 -469.69785 -49.12691" />
</svg>