<svg version="1.1" xmlns="http://www.w3.org/2000/svg" viewBox="-739.7626317812777 -141.63298299493096 1479.5252635625554 275.5652956684498" fill="none" stroke="black" stroke-width="0.6%" vector-effect="non-scaling-stroke">
    <path d="M -738.76263 -105.20806 L -738.76263 -116.17939 L 0.00025 0.00045 L 738.76263 -24.45314 L -0.00025 -140.63298 L -738.76263 -116.17939" />
    <path d="M 0.00025 10.97178 L 0.00025 0.00045" />
    <path d="M -0.00184 10.97145 L 0.00025 10.97178 L 228.04587 3.4233 L 228.04587 103.16269 L 238.04388 102.83174" />
    <path d="M -0.00184 10.97145 L -0.00184 45.88024 L 205.77548 39.06886" />
    <path d="M -4.58875 45.15889 L -0.00184 45.88024" />
    <path d="M -4.58875 10.2501 L -4.58875 45.15889" />
    <path d="M -734.17364 -104.48638 L -4.58875 10.2501" />
    <path d="M -734.17364 -104.48638 L -734.17364 -69.5776 L -550.79398 -75.6476" />
    <path d="M -738.76055 -70.29895 L -734.17364 -69.5776" />
    <path d="M -738.76055 -105.20773 L -738.76055 -70.29895" />
    <path d="M -738.76263 -105.20806 L -738.76055 -105.20773" />
    <path d="M 738.76263 21.42698 L 738.76263 -24.45314" />
    <path d="M 728.76462 21.75792 L 738.76263 21.42698" />
    <path d="M 728.76462 -13.15087 L 728.76462 21.75792" />
    <path d="M 510.71701 -5.93333 L 728.76462 -13.15087" />
    <path d="M 510.71701 -5.93333 L 510.71701 93.80606" />
    <path d="M 500.71899 94.137 L 510.71701 93.80606" />
    <path d="M 500.71899 -5.60238 L 500.71899 94.137" />
    <path d="M 238.04388 3.09236 L 500.71899 -5.60238" />
    <path d="M 238.04388 3.09236 L 238.04388 102.83174" />
    <path d="M -0.00184 10.97145 L 228.04378 3.42297" />
    <path d="M -260.3101 -21.30542 A 30 27.19625 278.93729 0 0 -237.70339 7.42778" />
    <path d="M -532.98323 -72.84664 L -532.98323 -12.27973 L -528.39632 -11.55838" />
    <path d="M -532.98323 -12.27973 A 30 27.19625 278.93729 0 0 -510.37652 16.45347" />
    <path d="M -260.3101 -28.49415 L -260.3101 -21.30542 L -255.7232 -20.58407" />
    <path d="M -201.3414 -19.22058 A 30 27.19625 98.93729 0 1 -233.11649 8.14913 L -237.70339 7.42778" />
    <path d="M -233.11649 8.14913 A 30 27.19625 98.93729 0 1 -255.7232 -20.58407" />
    <path d="M -233.45489 -24.27083 L -233.45489 -21.32117 L -215.3388 -18.47218 L -214.96884 -21.36366" />
    <path d="M -506.12802 -68.62331 L -506.12802 -12.29548 L -488.01192 -9.44649 L -478.01391 -9.77744" />
    <path d="M -528.39632 -72.12529 L -528.39632 -11.55838" />
    <path d="M -473.8617 -13.36352 A 30 27.19625 98.93729 0 1 -505.78961 17.17482 L -510.37652 16.45347" />
    <path d="M -505.78961 17.17482 A 30 27.19625 98.93729 0 1 -528.39632 -11.55838" />
    <path d="M -473.8617 -13.36352 L -473.8617 -42.22975" />
    <path d="M -255.7232 -27.7728 L -255.7232 -20.58407" />
    <path d="M 200.18923 57.70886 L 201.18857 65.83374" />
    <path d="M 200.18923 57.70886 A 20 8.31809 88.10416 0 0 192.25758 42.67786" />
    <path d="M -474.92872 -62.24566 L -4.58875 11.72128" />
    <path d="M 175.64959 40.06604 L 192.25758 42.67786" />
    <path d="M -474.92872 -62.24566 A 20 8.31809 88.10416 0 0 -475.59037 -62.28683 A 20 8.31809 88.10416 0 0 -482.86037 -49.70936 L -472.86235 -50.04031 L -478.01391 -9.77744" />
    <path d="M -488.01192 -9.44649 L -482.86037 -49.70936" />
    <path d="M 473.8617 94.15242 A 30 27.19625 278.93729 0 0 496.46841 122.88562 L 501.05531 123.60697 A 30 27.19625 98.93729 0 1 478.4486 94.87377 L 473.8617 94.15242 L 473.8617 30.195" />
    <path d="M 201.18857 103.17811 A 30 27.19625 278.93729 0 0 223.79528 131.91131 L 228.38219 132.63266 A 30 27.19625 98.93729 0 1 205.77548 103.89946 L 201.18857 103.17811 L 201.18857 39.22069" />
    <path d="M 532.98323 93.06863 A 30 27.19625 98.93729 0 1 501.05531 123.60697" />
    <path d="M 478.4486 94.87377 L 478.4486 30.04317" />
    <path d="M 260.3101 37.26372 L 478.4486 30.04317" />
    <path d="M 260.3101 37.26372 L 260.3101 102.09432 A 30 27.19625 98.93729 0 1 228.38219 132.63266" />
    <path d="M 205.77548 103.89946 L 205.77548 39.06886" />
    <path d="M 228.04378 103.16236 L 228.04378 3.42297" />
    <path d="M 228.04378 103.16236 L 238.0418 102.83142" />
    <path d="M 500.71691 94.13667 L 500.71691 -5.60271" />
    <path d="M 500.71691 94.13667 L 510.71492 93.80573" />
    <path d="M 728.76253 21.75759 L 728.76253 -13.15119" />
    <path d="M 532.98323 28.23803 L 728.76253 21.75759 L 728.76462 21.75792" />
    <path d="M 532.98323 28.23803 L 532.98323 93.06863" />
    <path d="M 228.04378 103.16236 L 228.04587 103.16269" />
    <path d="M 500.71691 94.13667 L 500.71899 94.137" />
    <path d="M -205.20954 -19.82889 L -205.34078 -18.80312" />
    <path d="M -215.3388 -18.47218 L -205.34078 -18.80312" />
    <path d="M 472.86235 48.68317 L 473.8617 56.80805" />
    <path d="M 472.86235 48.68317 A 20 8.31809 88.10416 0 0 464.9307 33.65218" />
    <path d="M 448.32272 31.04036 L 464.9307 33.65218" />
    <path d="M -468.48585 -61.23243 A 20 8.31809 88.10416 0 0 -472.86235 -50.04031" />
</svg>