<svg version="1.1" xmlns="http://www.w3.org/2000/svg" viewBox="-739.7781019945608 -141.67600913951304 1479.5562039891215 275.6462116036162" fill="none" stroke="black" stroke-width="0.6%" vector-effect="non-scaling-stroke">
    <path d="M -738.7781 -105.23478 L -738.7781 -116.20608 L 0.02396 0.04393 L 738.7781 -24.426 L -0.02396 -140.67601 L -738.7781 -116.20608" />
    <path d="M 0.02396 11.01523 L 0.02396 0.04393" />
    <path d="M 0.02188 11.0149 L 0.02396 11.01523 L 228.06704 3.4617 L 228.06704 103.20076 L 238.06494 102.8696" />
    <path d="M 0.02188 11.0149 L 0.02188 45.92357 L 205.7969 39.10763" />
    <path d="M -4.56527 45.20178 L 0.02188 45.92357" />
    <path d="M -4.56527 10.29311 L -4.56527 45.20178" />
    <path d="M -734.18887 -104.51267 L -4.56527 10.29311" />
    <path d="M -734.18887 -104.51267 L -734.18887 -69.604 L -550.91485 -75.67463" />
    <path d="M -738.77602 -70.32578 L -734.18887 -69.604" />
    <path d="M -738.77602 -105.23445 L -738.77602 -70.32578" />
    <path d="M -738.7781 -105.23478 L -738.77602 -105.23445" />
    <path d="M 738.7781 21.45397 L 738.7781 -24.426" />
    <path d="M 728.7802 21.78513 L 738.7781 21.45397" />
    <path d="M 728.7802 -13.12354 L 728.7802 21.78513" />
    <path d="M 510.73502 -5.90118 L 728.7802 -13.12354" />
    <path d="M 510.73502 -5.90118 L 510.73502 93.83789" />
    <path d="M 500.73712 94.16905 L 510.73502 93.83789" />
    <path d="M 500.73712 -5.57002 L 500.73712 94.16905" />
    <path d="M 238.06494 3.13054 L 500.73712 -5.57002" />
    <path d="M 238.06494 3.13054 L 238.06494 102.8696" />
    <path d="M 0.02188 11.0149 L 228.06496 3.46137" />
    <path d="M -260.33092 -21.34304 A 30 27.19586 278.94213 0 0 -237.72701 7.38916" />
    <path d="M -533.001 -72.85589 L -533.001 -12.31133 L -528.41385 -11.58954" />
    <path d="M -533.001 -12.31133 A 30 27.19586 278.94213 0 0 -510.39709 16.42088" />
    <path d="M -260.33092 -28.50481 L -260.33092 -21.34304 L -255.74377 -20.62126" />
    <path d="M -201.36572 -19.22668 A 30 27.19586 98.94213 0 1 -233.13986 8.11095 L -237.72701 7.38916" />
    <path d="M -233.13986 8.11095 A 30 27.19586 98.94213 0 1 -255.74377 -20.62126" />
    <path d="M -233.47571 -24.27916 L -233.47571 -21.35885 L -215.35865 -18.50814 L -214.99235 -21.37082" />
    <path d="M -506.14579 -68.63024 L -506.14579 -12.32713 L -488.02873 -9.47642 L -478.03083 -9.80759" />
    <path d="M -528.41385 -72.13411 L -528.41385 -11.58954" />
    <path d="M -473.87983 -13.39588 A 30 27.19586 98.94213 0 1 -505.80994 17.14266 L -510.39709 16.42088" />
    <path d="M -505.80994 17.14266 A 30 27.19586 98.94213 0 1 -528.41385 -11.58954" />
    <path d="M -473.87983 -13.39588 L -473.87983 -42.24822" />
    <path d="M -255.74377 -27.78303 L -255.74377 -20.62126" />
    <path d="M 200.20892 57.74442 L 201.20975 65.88099" />
    <path d="M 200.20892 57.74442 A 20 8.31851 88.10287 0 0 192.27685 42.71272" />
    <path d="M -474.94484 -62.27417 L -4.56527 11.73974" />
    <path d="M 175.70095 40.10451 L 192.27685 42.71272" />
    <path d="M -474.94484 -62.27417 A 20 8.31851 88.10287 0 0 -475.60694 -62.31539 A 20 8.31851 88.10287 0 0 -482.8769 -49.73867 L -472.879 -50.06984 L -478.03083 -9.80759" />
    <path d="M -488.02873 -9.47642 L -482.8769 -49.73867" />
    <path d="M 473.87983 94.18453 A 30 27.19586 278.94213 0 0 496.48373 122.91673 L 501.07088 123.63851 A 30 27.19586 98.94213 0 1 478.46698 94.90631 L 473.87983 94.18453 L 473.87983 30.22786" />
    <path d="M 201.20975 103.21624 A 30 27.19586 278.94213 0 0 223.81365 131.94844 L 228.4008 132.67023 A 30 27.19586 98.94213 0 1 205.7969 103.93803 L 201.20975 103.21624 L 201.20975 39.25958" />
    <path d="M 533.001 93.09997 A 30 27.19586 98.94213 0 1 501.07088 123.63851" />
    <path d="M 478.46698 94.90631 L 478.46698 30.07592" />
    <path d="M 260.33092 37.30129 L 478.46698 30.07592" />
    <path d="M 260.33092 37.30129 L 260.33092 102.13168 A 30 27.19586 98.94213 0 1 228.4008 132.67023" />
    <path d="M 205.7969 103.93803 L 205.7969 39.10763" />
    <path d="M 228.06496 103.20044 L 228.06496 3.46137" />
    <path d="M 228.06496 103.20044 L 238.06286 102.86927" />
    <path d="M 500.73504 94.16872 L 500.73504 -5.57034" />
    <path d="M 500.73504 94.16872 L 510.73294 93.83756" />
    <path d="M 728.77811 21.7848 L 728.77811 -13.12387" />
    <path d="M 533.001 28.26958 L 728.77811 21.7848 L 728.7802 21.78513" />
    <path d="M 533.001 28.26958 L 533.001 93.09997" />
    <path d="M 228.06496 103.20044 L 228.06704 103.20076" />
    <path d="M 500.73504 94.16872 L 500.73712 94.16905" />
    <path d="M -205.23331 -19.83524 L -205.36075 -18.8393" />
    <path d="M -215.35865 -18.50814 L -205.36075 -18.8393" />
    <path d="M 472.879 48.71271 L 473.87983 56.84928" />
    <path d="M 472.879 48.71271 A 20 8.31851 88.10287 0 0 464.94693 33.681" />
    <path d="M 448.37103 31.07279 L 464.94693 33.681" />
    <path d="M -468.50323 -61.26058 A 20 8.31851 88.10287 0 0 -472.879 -50.06984" />
</svg>